<svg id="Calque_1" data-name="Calque 1" xmlns="http://www.w3.org/2000/svg" viewBox="0 0 455.4 455.41"><defs><style>.cls-1{fill:#fff;}</style></defs><path class="cls-1" d="M321.29,517.39l283-51.57C573,554.31,488.67,617.7,389.5,617.7c-125.76,0-227.7-102-227.7-227.7,0-5.61.21-11.17.6-16.68,0-.32,0-.67.08-1l.3-.05,256.13-46.42-138,138,0,0,0,0a36.1,36.1,0,0,0-2.9,5.11,35.19,35.19,0,0,0,7.22,39.82,35.49,35.49,0,0,0,18.38,9.65l.07,0a30.77,30.77,0,0,0,5.57.52,33.82,33.82,0,0,0,6.11-.57Z" transform="translate(-161.8 -162.3)"/><path class="cls-1" d="M617.2,390c0,5.76-.21,11.48-.63,17.12L371.12,451.87,504.17,320.14l1.35-1.34,0,0A35.6,35.6,0,0,0,515,287.65a35.89,35.89,0,0,0-28.91-28.71,29.33,29.33,0,0,0-4.86-.4,28.2,28.2,0,0,0-5.1.46l-8.64,1.56L174.81,314C206.1,225.6,290.42,162.3,389.5,162.3,515.26,162.3,617.2,264.25,617.2,390Z" transform="translate(-161.8 -162.3)"/></svg>