<svg id="Calque_1" data-name="Calque 1" xmlns="http://www.w3.org/2000/svg" xmlns:xlink="http://www.w3.org/1999/xlink" viewBox="0 0 940 757.62"><defs><style>.cls-1{fill:#fff;}.cls-2{fill:url(#Dégradé_sans_nom_48);}</style><linearGradient id="Dégradé_sans_nom_48" x1="404.56" y1="390.71" x2="859.96" y2="390.71" gradientUnits="userSpaceOnUse"><stop offset="0" stop-color="#fb1626"/><stop offset="1" stop-color="#bb0d5a"/></linearGradient></defs><path class="cls-1" d="M279.1,891.07H204.42l82.9-109.8,0,0C289,779,290,775.9,290,771.88q0-13.8-13.79-13.8H176.06q-13.8,0-13.8,13.8t13.8,13.8H251L167.84,895.47l0,0c-1.75,2.26-2.68,5.34-2.68,9.36q0,13.8,13.8,13.8H279.1q13.8,0,13.8-13.8T279.1,891.07Z" transform="translate(-162.26 -163)"/><path class="cls-1" d="M435.57,767q-16.44-10.12-39.33-10.13-23.21,0-41.1,10.42a74.07,74.07,0,0,0-28,28.77Q317,814.45,317,838.52q0,23.79,10.72,42.13a76.23,76.23,0,0,0,29.65,28.77q18.93,10.43,43.3,10.42a88.68,88.68,0,0,0,28.33-5q14.82-5,24.81-12.92,5-3.81,4.69-9.1c-.19-3.52-2-6.75-5.28-9.69a12.89,12.89,0,0,0-9-3.08,16.63,16.63,0,0,0-9.54,3.38,58,58,0,0,1-15.41,7.78,55.72,55.72,0,0,1-18.64,3.37q-16.74,0-29.65-7.34A52.91,52.91,0,0,1,344.3,848.8H455.83a13.46,13.46,0,0,0,9.69-3.67,12.32,12.32,0,0,0,3.82-9.25q0-23.19-8.66-41A66.06,66.06,0,0,0,435.57,767Zm-68,22.46q11.89-7.34,28.63-7.35,14.67,0,24.95,6.76A44.58,44.58,0,0,1,437,807.26a59.51,59.51,0,0,1,5.22,18H344.61a61,61,0,0,1,4.95-15.71A47.29,47.29,0,0,1,367.61,789.5Z" transform="translate(-162.26 -163)"/><path class="cls-1" d="M623.6,765.28q-16-8.65-36.25-8.66-19.38,0-34.94,8.51a66.69,66.69,0,0,0-15,11.16v-3.23a14.72,14.72,0,0,0-4.11-10.87q-4.11-4.11-10.86-4.11a14.81,14.81,0,0,0-10.72,4.11,14.43,14.43,0,0,0-4.25,10.87V904a15.26,15.26,0,0,0,25.83,10.71A14.79,14.79,0,0,0,537.44,904V821.2A32.61,32.61,0,0,1,543.31,802a41.81,41.81,0,0,1,15.85-13.36,49.27,49.27,0,0,1,22.31-5,53.54,53.54,0,0,1,23.93,5.14A38.84,38.84,0,0,1,622,804.47q6.16,10.56,6.16,27.3V904a15,15,0,1,0,30,0V831.77q0-24.36-9.25-41.1A62.43,62.43,0,0,0,623.6,765.28Z" transform="translate(-162.26 -163)"/><path class="cls-1" d="M725.62,758.08a14.81,14.81,0,0,0-10.72,4.11,14.44,14.44,0,0,0-4.26,10.87V903.69a15.26,15.26,0,0,0,25.84,10.72,14.81,14.81,0,0,0,4.11-10.72V773.06a14.13,14.13,0,0,0-15-15Z" transform="translate(-162.26 -163)"/><path class="cls-1" d="M725.62,693.21a19.53,19.53,0,1,0,13.65,5.72A18.63,18.63,0,0,0,725.62,693.21Z" transform="translate(-162.26 -163)"/><path class="cls-1" d="M860.79,827.6l53.88-48.09a13.68,13.68,0,0,0,4.7-9.39,13.52,13.52,0,0,0-22.9-10.57l-71.34,63.67V703.77a14.39,14.39,0,1,0-28.77,0V904.28a14.39,14.39,0,1,0,28.77,0V859.43l14.61-13,55.85,69.05a13.17,13.17,0,0,0,9.54,5.13,14.27,14.27,0,0,0,10.42-3.37q5-4.11,5.43-9.54a13.82,13.82,0,0,0-3.38-10.13Z" transform="translate(-162.26 -163)"/><path class="cls-1" d="M1091.55,796.84a79.7,79.7,0,0,0-28.92-29.22q-18.21-10.71-41.1-10.71t-41.25,10.71a79.24,79.24,0,0,0-29.06,29.22q-10.72,18.48-10.72,41.68t9.84,41.54a76.19,76.19,0,0,0,26.86,29.07q17,10.71,38.46,10.71t38.46-10.71a75,75,0,0,0,18.2-16.07V904a15,15,0,1,0,29.94,0V838.52Q1102.26,815.33,1091.55,796.84Zm-43.3,89.39a53,53,0,0,1-53.29,0,52,52,0,0,1-18.79-19.67,57,57,0,0,1-6.9-28,57.55,57.55,0,0,1,6.9-28.33A52,52,0,0,1,995,790.52a53,53,0,0,1,53.29,0,51.27,51.27,0,0,1,18.49,19.67,58.58,58.58,0,0,1,6.75,28.33,58,58,0,0,1-6.75,28A51.2,51.2,0,0,1,1048.25,886.23Z" transform="translate(-162.26 -163)"/><path class="cls-2" d="M860,390.7q0,8.66-.63,17.13a226.5,226.5,0,0,1-12.3,58.7C815.79,555,731.43,618.41,632.26,618.41c-125.76,0-227.7-101.95-227.7-227.71,0-5.6.21-11.16.6-16.67,0-.33,0-.67.08-1a226.5,226.5,0,0,1,11.52-56l.81-2.33C448.86,226.3,533.18,163,632.26,163,758,163,860,265,860,390.7Z" transform="translate(-162.26 -163)"/><path class="cls-1" d="M859.33,407.83a226.5,226.5,0,0,1-12.3,58.7l-283,51.57-6,1.09a33.82,33.82,0,0,1-6.11.57,29.89,29.89,0,0,1-5.57-.52h-.07a35.58,35.58,0,0,1-18.38-9.66,35.18,35.18,0,0,1-7.22-39.82,37.24,37.24,0,0,1,2.9-5.11l0,0,0,0,138-138L405.54,373l-.3,0a226.5,226.5,0,0,1,11.52-56l.81-2.33,292.68-53.41,8.64-1.56a28.75,28.75,0,0,1,10-.05,35.87,35.87,0,0,1,28.91,28.71,35.64,35.64,0,0,1-9.44,31.11l0,0-1.35,1.35-133,131.72Z" transform="translate(-162.26 -163)"/></svg>