<svg id="Calque_1" data-name="Calque 1" xmlns="http://www.w3.org/2000/svg" viewBox="0 0 1493.44 455.41"><defs><style>.cls-1{fill:#fff;}</style></defs><path class="cls-1" d="M832.06,477.07H757.38l82.9-109.8,0,0c1.75-2.26,2.68-5.34,2.68-9.35q0-13.8-13.8-13.8H729q-13.8,0-13.8,13.8T729,371.67h74.92L720.8,481.47l0,0c-1.75,2.26-2.68,5.35-2.68,9.36q0,13.8,13.79,13.8H832.06q13.8,0,13.8-13.8T832.06,477.07Z" transform="translate(-161.78 -163.29)"/><path class="cls-1" d="M988.53,353q-16.44-10.12-39.34-10.13-23.19,0-41.09,10.42a74,74,0,0,0-28,28.78q-10.12,18.34-10.13,42.41,0,23.79,10.72,42.13a76,76,0,0,0,29.65,28.77q18.93,10.43,43.3,10.42a89,89,0,0,0,28.33-5q14.82-5,24.8-12.92,5-3.82,4.7-9.1t-5.28-9.69a12.86,12.86,0,0,0-9-3.08,16.69,16.69,0,0,0-9.54,3.37,57.69,57.69,0,0,1-15.41,7.78,55.74,55.74,0,0,1-18.64,3.38q-16.74,0-29.65-7.34a52.9,52.9,0,0,1-26.69-38.46h111.53a13.42,13.42,0,0,0,9.69-3.67,12.29,12.29,0,0,0,3.81-9.25q0-23.19-8.66-40.95A66,66,0,0,0,988.53,353Zm-68,22.46q11.89-7.33,28.62-7.34,14.68,0,25,6.75A44.58,44.58,0,0,1,990,393.25a59.3,59.3,0,0,1,5.21,18.05H897.57a60.59,60.59,0,0,1,4.95-15.7A47.25,47.25,0,0,1,920.57,375.49Z" transform="translate(-161.78 -163.29)"/><path class="cls-1" d="M1176.56,351.27q-16-8.65-36.26-8.66a71.62,71.62,0,0,0-34.93,8.51,66.69,66.69,0,0,0-15,11.16v-3.23q0-6.75-4.11-10.86c-2.75-2.74-6.36-4.11-10.87-4.11a14.79,14.79,0,0,0-10.71,4.11,14.4,14.4,0,0,0-4.26,10.86V490a15.27,15.27,0,0,0,25.84,10.72A14.81,14.81,0,0,0,1090.4,490V407.19a32.56,32.56,0,0,1,5.87-19.22,41.64,41.64,0,0,1,15.85-13.36,49.14,49.14,0,0,1,22.31-5,53.53,53.53,0,0,1,23.93,5.13A39,39,0,0,1,1175,390.46q6.15,10.57,6.16,27.31V490a15,15,0,1,0,29.94,0V417.77q0-24.37-9.24-41.1A62.52,62.52,0,0,0,1176.56,351.27Z" transform="translate(-161.78 -163.29)"/><path class="cls-1" d="M1278.57,344.08a14.77,14.77,0,0,0-10.71,4.11,14.4,14.4,0,0,0-4.26,10.86V489.69a15.26,15.26,0,0,0,25.84,10.71,14.81,14.81,0,0,0,4.1-10.71V359.05a14.11,14.11,0,0,0-15-15Z" transform="translate(-161.78 -163.29)"/><path class="cls-1" d="M1278.57,279.2a19.55,19.55,0,1,0,13.65,5.72A18.67,18.67,0,0,0,1278.57,279.2Z" transform="translate(-161.78 -163.29)"/><path class="cls-1" d="M1413.75,413.6l53.88-48.09a13.62,13.62,0,0,0,4.69-9.39,14.63,14.63,0,0,0-13.06-14.39,13,13,0,0,0-9.83,3.81l-71.34,63.67V289.77a14.39,14.39,0,1,0-28.77,0v200.5a14.39,14.39,0,1,0,28.77,0V445.42l14.61-13,55.85,69.05a13.18,13.18,0,0,0,9.54,5.14,14.33,14.33,0,0,0,10.42-3.38c3.32-2.74,5.14-5.92,5.43-9.54a13.87,13.87,0,0,0-3.38-10.13Z" transform="translate(-161.78 -163.29)"/><path class="cls-1" d="M1644.5,382.83a79.65,79.65,0,0,0-28.91-29.21q-18.21-10.71-41.1-10.72t-41.25,10.72a79.29,79.29,0,0,0-29.06,29.21q-10.73,18.5-10.72,41.68t9.84,41.55a76.09,76.09,0,0,0,26.86,29.06q17,10.72,38.46,10.71t38.45-10.71a74.78,74.78,0,0,0,18.2-16.06V490a15,15,0,1,0,30,0V424.51Q1655.22,401.34,1644.5,382.83Zm-43.3,89.39a52.95,52.95,0,0,1-53.28,0,51.8,51.8,0,0,1-18.79-19.67,56.92,56.92,0,0,1-6.9-28,57.54,57.54,0,0,1,6.9-28.32,51.87,51.87,0,0,1,18.79-19.67,52.88,52.88,0,0,1,53.28,0,51.22,51.22,0,0,1,18.5,19.67,58.57,58.57,0,0,1,6.75,28.32,57.93,57.93,0,0,1-6.75,28A51.15,51.15,0,0,1,1601.2,472.22Z" transform="translate(-161.78 -163.29)"/><path class="cls-1" d="M321.27,518.38l283-51.55C573,555.3,488.65,618.71,389.48,618.71c-125.76,0-227.7-102-227.7-227.71,0-5.61.21-11.17.6-16.67,0-.33.05-.68.08-1l.3-.07,256.13-46.42-138,138,0,0,0,0a37.24,37.24,0,0,0-2.9,5.11,35.19,35.19,0,0,0,7.22,39.82,35.49,35.49,0,0,0,18.38,9.65h.07a29.07,29.07,0,0,0,5.57.52,35.67,35.67,0,0,0,6.11-.55Z" transform="translate(-161.78 -163.29)"/><path class="cls-1" d="M617.18,391c0,5.76-.21,11.48-.63,17.12L371.1,452.85l133-131.72,1.35-1.34,0,0A35.64,35.64,0,0,0,515,288.65,35.84,35.84,0,0,0,486.07,260a27.36,27.36,0,0,0-4.86-.43,28.22,28.22,0,0,0-5.1.47l-8.64,1.56L174.79,315c31.29-88.37,115.61-151.67,214.69-151.67C515.24,163.29,617.18,265.25,617.18,391Z" transform="translate(-161.78 -163.29)"/></svg>